<svg xmlns="http://www.w3.org/2000/svg" xmlns:xlink="http://www.w3.org/1999/xlink" width="500" zoomAndPan="magnify" viewBox="0 0 375 165.000002" height="220" preserveAspectRatio="xMidYMid meet" version="1.0"><defs><g/><clipPath id="440ee047b7"><path d="M 2.621094 16.449219 L 115.933594 16.449219 L 115.933594 147.554688 L 2.621094 147.554688 Z M 2.621094 16.449219 " clip-rule="nonzero"/></clipPath></defs><g clip-path="url(#440ee047b7)"><path fill="#f23e79" d="M 41.160156 54.300781 C 42.152344 53.792969 43.148438 53.28125 44.140625 52.773438 C 45.03125 52.320312 45.289062 51.066406 44.804688 50.238281 C 44.277344 49.332031 43.164062 49.113281 42.269531 49.570312 C 41.277344 50.078125 40.28125 50.585938 39.289062 51.09375 C 38.398438 51.550781 38.140625 52.804688 38.625 53.632812 C 39.152344 54.539062 40.265625 54.753906 41.160156 54.300781 Z M 66.398438 63.082031 C 65.628906 63.898438 64.867188 64.714844 64.105469 65.53125 C 63.441406 66.238281 63.351562 67.460938 64.105469 68.15625 C 64.824219 68.820312 66.011719 68.910156 66.726562 68.15625 C 67.488281 67.335938 68.25 66.523438 69.011719 65.707031 C 69.675781 64.996094 69.765625 63.773438 69.011719 63.082031 C 68.292969 62.421875 67.105469 62.328125 66.398438 63.082031 Z M 81.394531 82.550781 C 80.75 81.636719 80.105469 80.71875 79.460938 79.8125 C 78.902344 79.019531 77.820312 78.570312 76.929688 79.144531 C 76.148438 79.648438 75.667969 80.835938 76.261719 81.683594 C 76.910156 82.597656 77.550781 83.507812 78.195312 84.421875 C 78.753906 85.214844 79.835938 85.664062 80.726562 85.089844 C 81.511719 84.582031 81.992188 83.398438 81.394531 82.550781 Z M 70.238281 122.695312 C 71.351562 122.6875 72.472656 122.675781 73.585938 122.667969 C 74.585938 122.660156 75.433594 121.820312 75.433594 120.8125 C 75.433594 119.816406 74.589844 118.949219 73.585938 118.957031 C 72.472656 118.96875 71.351562 118.976562 70.238281 118.988281 C 69.234375 119 68.382812 119.832031 68.382812 120.84375 C 68.382812 121.84375 69.234375 122.707031 70.238281 122.695312 Z M 78.519531 99.679688 L 78.65625 96.332031 C 78.699219 95.332031 77.777344 94.480469 76.808594 94.480469 C 75.769531 94.480469 74.996094 95.328125 74.953125 96.332031 L 74.816406 99.679688 C 74.773438 100.6875 75.695312 101.539062 76.664062 101.539062 C 77.703125 101.539062 78.472656 100.691406 78.519531 99.679688 Z M 43.3125 84.03125 C 42.726562 83.078125 42.136719 82.128906 41.546875 81.179688 C 41.039062 80.355469 39.871094 79.960938 39.015625 80.515625 C 38.191406 81.042969 37.804688 82.167969 38.351562 83.054688 C 38.9375 84.003906 39.527344 84.953125 40.117188 85.902344 C 40.625 86.726562 41.792969 87.121094 42.652344 86.570312 C 43.472656 86.035156 43.859375 84.914062 43.3125 84.03125 Z M 27.277344 107.214844 C 28.199219 106.582031 29.121094 105.953125 30.042969 105.324219 C 30.839844 104.777344 31.273438 103.664062 30.707031 102.785156 C 30.195312 101.988281 29.027344 101.535156 28.175781 102.117188 C 27.25 102.746094 26.332031 103.378906 25.410156 104.007812 C 24.609375 104.554688 24.175781 105.667969 24.746094 106.546875 C 25.257812 107.34375 26.421875 107.796875 27.277344 107.214844 Z M 30.835938 79.339844 C 31.238281 79.671875 31.488281 80.140625 31.539062 80.660156 C 31.589844 81.183594 31.4375 81.6875 31.105469 82.09375 C 30.773438 82.5 30.308594 82.75 29.785156 82.800781 C 29.269531 82.851562 28.761719 82.691406 28.355469 82.363281 C 27.953125 82.03125 27.703125 81.5625 27.652344 81.042969 C 27.601562 80.519531 27.757812 80.015625 28.085938 79.609375 C 28.417969 79.203125 28.886719 78.953125 29.40625 78.902344 C 29.472656 78.898438 29.535156 78.894531 29.597656 78.894531 C 30.050781 78.894531 30.484375 79.046875 30.835938 79.339844 Z M 30.148438 86.488281 C 31.652344 86.339844 33.003906 85.617188 33.960938 84.445312 C 34.921875 83.277344 35.367188 81.804688 35.222656 80.296875 C 35.074219 78.792969 34.351562 77.433594 33.183594 76.476562 C 32.015625 75.515625 30.550781 75.066406 29.042969 75.214844 C 27.542969 75.363281 26.1875 76.085938 25.230469 77.257812 C 24.273438 78.425781 23.824219 79.898438 23.972656 81.40625 C 24.121094 82.910156 24.84375 84.269531 26.011719 85.226562 C 27.03125 86.066406 28.28125 86.515625 29.585938 86.515625 C 29.773438 86.515625 29.960938 86.507812 30.148438 86.488281 Z M 112.214844 88.917969 C 111.761719 75.683594 106.445312 63.664062 98.007812 54.597656 L 96.367188 56.242188 C 97.054688 57.367188 97.550781 58.695312 97.972656 60.21875 C 98.1875 60.980469 98.390625 61.78125 98.585938 62.558594 C 99.367188 65.65625 100.253906 69.171875 101.964844 70.480469 C 104 72.039062 108.761719 75.6875 107.964844 83.6875 C 107.734375 86 107.34375 87.617188 106.992188 88.917969 Z M 98 126.949219 C 106.445312 117.886719 111.761719 105.867188 112.214844 92.625 L 106.261719 92.625 C 106.28125 93.175781 106.394531 93.773438 106.613281 94.53125 C 106.800781 95.160156 107.015625 95.777344 107.242188 96.425781 C 108.542969 100.144531 110.015625 104.363281 105.109375 109.925781 C 103.65625 111.5625 102.457031 112.726562 101.496094 113.664062 C 99.179688 115.910156 98.484375 116.585938 98.195312 119.925781 C 97.988281 122.371094 97.542969 124.265625 96.78125 125.726562 Z M 61.136719 143.8125 C 74.34375 143.359375 86.34375 138.03125 95.390625 129.570312 L 94.269531 128.453125 C 93.1875 129.117188 91.859375 129.539062 90.222656 129.785156 C 89.777344 129.847656 89.324219 129.910156 88.871094 129.972656 C 85.320312 130.46875 81.644531 130.980469 80.363281 133.328125 C 78.339844 137.054688 74.050781 140.289062 69.707031 140.289062 C 68.984375 140.289062 68.253906 140.203125 67.53125 140.007812 C 66.320312 139.679688 65.113281 139.226562 63.949219 138.785156 C 62.976562 138.425781 62.019531 138.0625 61.136719 137.804688 Z M 23.183594 129.570312 C 32.230469 138.03125 44.226562 143.359375 57.4375 143.8125 L 57.4375 137.785156 C 57.414062 137.796875 57.386719 137.808594 57.367188 137.820312 C 53.78125 140.28125 46.046875 141.097656 41.59375 136.832031 L 41.234375 136.488281 C 37.828125 133.210938 34.609375 130.128906 30.703125 130.128906 C 28.386719 130.128906 26.3125 129.339844 24.632812 128.117188 Z M 6.355469 92.625 C 6.8125 105.867188 12.128906 117.886719 20.570312 126.949219 L 22.050781 125.460938 C 21.109375 124.09375 20.519531 122.5625 20.378906 121.066406 C 19.949219 116.566406 18.578125 113.03125 16.707031 111.621094 C 16.289062 111.300781 15.839844 110.988281 15.40625 110.6875 C 12.824219 108.898438 9.609375 106.671875 10.460938 101.039062 C 10.652344 99.773438 10.894531 98.582031 11.125 97.4375 C 11.464844 95.765625 11.78125 94.207031 11.894531 92.625 Z M 20.546875 54.578125 C 11.78125 63.988281 6.792969 76.054688 6.355469 88.917969 L 11.726562 88.917969 C 11.605469 88.242188 11.425781 87.554688 11.183594 86.835938 C 9.324219 81.410156 8.359375 76.851562 14.097656 71.695312 C 18.589844 67.660156 19.378906 66.210938 19.914062 62.980469 C 20.429688 59.871094 21.160156 57.667969 22.167969 56.203125 Z M 45.058594 79.140625 L 24.863281 58.902344 C 24.441406 59.753906 23.960938 61.183594 23.5625 63.59375 C 22.839844 67.917969 21.46875 70.050781 16.566406 74.457031 C 12.832031 77.808594 12.816406 80.191406 14.679688 85.628906 C 15.070312 86.773438 15.320312 87.867188 15.46875 88.917969 L 54.820312 88.917969 Z M 61.136719 47.753906 L 61.136719 86.300781 L 91.019531 56.351562 C 90.183594 56.007812 89.117188 55.785156 87.714844 55.667969 C 82.414062 55.222656 79.226562 52.25 76.667969 49.855469 C 76.082031 49.3125 75.535156 48.800781 74.988281 48.339844 C 72 45.820312 69.667969 43.847656 64.535156 46.484375 C 63.398438 47.066406 62.261719 47.492188 61.136719 47.753906 Z M 95.390625 51.976562 C 86.34375 43.519531 74.34375 38.1875 61.136719 37.734375 L 61.136719 43.910156 C 61.691406 43.722656 62.261719 43.488281 62.847656 43.1875 C 70.164062 39.425781 74.3125 42.925781 77.339844 45.480469 C 77.988281 46.023438 78.597656 46.59375 79.191406 47.144531 C 81.554688 49.351562 84 51.636719 88.019531 51.972656 C 90.523438 52.183594 92.367188 52.734375 93.765625 53.601562 Z M 61.136719 133.988281 C 62.527344 134.296875 63.925781 134.820312 65.246094 135.320312 C 66.332031 135.730469 67.453125 136.152344 68.492188 136.429688 C 71.609375 137.273438 75.46875 134.589844 77.121094 131.554688 C 79.292969 127.566406 84.113281 126.894531 88.363281 126.308594 C 88.804688 126.246094 89.246094 126.183594 89.679688 126.121094 C 90.382812 126.015625 90.992188 125.894531 91.523438 125.699219 L 61.136719 95.25 L 61.136719 114.152344 C 61.3125 114.265625 61.484375 114.390625 61.648438 114.527344 C 64.058594 116.507812 64.40625 120.085938 62.429688 122.5 C 62.050781 122.957031 61.613281 123.335938 61.136719 123.648438 Z M 27.289062 125.453125 C 28.25 126.042969 29.394531 126.421875 30.703125 126.421875 C 36.09375 126.421875 40.007812 130.175781 43.792969 133.8125 L 44.152344 134.15625 C 47.058594 136.945312 52.816406 136.457031 55.28125 134.765625 C 55.96875 134.296875 56.691406 134.007812 57.4375 133.847656 L 57.4375 124.523438 C 56.382812 124.40625 55.351562 124 54.476562 123.277344 C 52.066406 121.292969 51.71875 117.722656 53.699219 115.308594 C 54.640625 114.160156 55.964844 113.441406 57.4375 113.28125 L 57.4375 95.25 Z M 59.574219 120.144531 C 60.253906 119.3125 60.132812 118.074219 59.300781 117.390625 C 58.949219 117.101562 58.515625 116.945312 58.066406 116.945312 C 58.003906 116.945312 57.9375 116.949219 57.875 116.957031 C 57.355469 117.003906 56.886719 117.253906 56.554688 117.664062 C 55.871094 118.496094 55.992188 119.730469 56.824219 120.414062 C 57.65625 121.101562 58.890625 120.980469 59.574219 120.144531 Z M 24.738281 122.773438 L 54.820312 92.628906 L 15.597656 92.628906 C 15.480469 94.558594 15.113281 96.382812 14.75 98.175781 C 14.527344 99.28125 14.296875 100.417969 14.117188 101.597656 C 13.613281 104.941406 15.078125 105.960938 17.511719 107.640625 C 17.976562 107.964844 18.453125 108.300781 18.9375 108.660156 C 22.664062 111.480469 23.746094 117.425781 24.058594 120.714844 C 24.121094 121.355469 24.355469 122.066406 24.738281 122.773438 Z M 102.570312 92.628906 L 63.75 92.628906 L 93.960938 122.902344 C 94.214844 122.0625 94.394531 120.992188 94.515625 119.613281 C 94.917969 114.886719 96.425781 113.429688 98.921875 111 C 99.84375 110.109375 100.984375 109 102.339844 107.46875 C 105.808594 103.539062 104.949219 101.066406 103.753906 97.648438 C 103.523438 96.988281 103.28125 96.300781 103.070312 95.585938 C 102.730469 94.449219 102.589844 93.488281 102.570312 92.628906 Z M 93.640625 58.96875 L 63.75 88.921875 L 103.15625 88.921875 C 103.179688 88.828125 103.207031 88.742188 103.230469 88.648438 C 103.609375 87.296875 104.039062 85.761719 104.28125 83.320312 C 104.832031 77.839844 102.214844 75.339844 99.71875 73.425781 C 96.980469 71.332031 95.972656 67.332031 95 63.46875 C 94.808594 62.699219 94.613281 61.941406 94.414062 61.222656 C 94.175781 60.359375 93.933594 59.609375 93.640625 58.96875 Z M 115.949219 90.773438 C 115.949219 122.085938 90.53125 147.558594 59.289062 147.558594 C 28.042969 147.558594 2.621094 122.085938 2.621094 90.773438 C 2.621094 75.613281 8.515625 61.351562 19.21875 50.625 L 20.527344 49.316406 L 57.4375 86.304688 L 57.4375 33.996094 L 59.289062 33.996094 C 90.53125 33.996094 115.949219 59.46875 115.949219 90.773438 Z M 90.074219 101.8125 C 90.585938 101.929688 91.015625 102.234375 91.292969 102.675781 C 91.570312 103.121094 91.664062 103.644531 91.546875 104.152344 C 91.433594 104.664062 91.121094 105.097656 90.683594 105.375 C 90.246094 105.65625 89.71875 105.746094 89.207031 105.632812 C 88.703125 105.515625 88.269531 105.207031 87.992188 104.765625 C 87.710938 104.320312 87.621094 103.796875 87.738281 103.289062 C 87.855469 102.777344 88.160156 102.34375 88.601562 102.0625 C 88.917969 101.871094 89.273438 101.761719 89.640625 101.761719 C 89.785156 101.761719 89.929688 101.78125 90.074219 101.8125 Z M 92.652344 108.511719 C 93.933594 107.707031 94.820312 106.453125 95.152344 104.976562 C 95.488281 103.5 95.226562 101.980469 94.421875 100.703125 C 93.621094 99.421875 92.367188 98.535156 90.894531 98.199219 C 89.421875 97.863281 87.910156 98.125 86.628906 98.933594 C 85.351562 99.734375 84.464844 100.988281 84.132812 102.46875 C 83.800781 103.945312 84.058594 105.460938 84.863281 106.738281 C 85.667969 108.015625 86.921875 108.90625 88.390625 109.246094 C 88.8125 109.335938 89.230469 109.386719 89.652344 109.386719 C 90.707031 109.386719 91.742188 109.085938 92.652344 108.511719 Z M 88.675781 75.132812 C 89.1875 75.25 89.621094 75.5625 89.898438 76 C 90.175781 76.445312 90.261719 76.964844 90.148438 77.480469 C 89.910156 78.53125 88.863281 79.191406 87.8125 78.953125 C 87.304688 78.835938 86.871094 78.53125 86.59375 78.085938 C 86.316406 77.644531 86.226562 77.121094 86.34375 76.613281 C 86.457031 76.101562 86.761719 75.667969 87.203125 75.390625 C 87.519531 75.191406 87.878906 75.089844 88.242188 75.089844 C 88.386719 75.089844 88.535156 75.101562 88.675781 75.132812 Z M 93.753906 78.296875 C 94.089844 76.820312 93.832031 75.304688 93.027344 74.027344 C 92.222656 72.75 90.96875 71.855469 89.496094 71.519531 C 86.457031 70.832031 83.425781 72.746094 82.734375 75.792969 C 82.398438 77.265625 82.65625 78.78125 83.460938 80.058594 C 84.269531 81.34375 85.523438 82.230469 86.996094 82.566406 C 87.414062 82.664062 87.832031 82.710938 88.246094 82.710938 C 90.828125 82.710938 93.160156 80.921875 93.753906 78.296875 Z M 75.460938 54.726562 C 75.460938 55.808594 74.585938 56.683594 73.507812 56.683594 C 72.429688 56.683594 71.558594 55.808594 71.558594 54.726562 C 71.558594 53.648438 72.429688 52.773438 73.507812 52.773438 C 74.585938 52.773438 75.460938 53.648438 75.460938 54.726562 Z M 79.15625 54.726562 C 79.15625 51.605469 76.625 49.066406 73.507812 49.066406 C 70.390625 49.066406 67.859375 51.605469 67.859375 54.726562 C 67.859375 57.851562 70.390625 60.390625 73.507812 60.390625 C 76.625 60.390625 79.15625 57.851562 79.15625 54.726562 Z M 44.488281 39.65625 C 44.488281 40.734375 43.609375 41.613281 42.535156 41.613281 C 41.457031 41.613281 40.582031 40.734375 40.582031 39.65625 C 40.582031 38.578125 41.457031 37.703125 42.535156 37.703125 C 43.609375 37.703125 44.488281 38.578125 44.488281 39.65625 Z M 48.183594 39.65625 C 48.183594 36.535156 45.648438 33.996094 42.535156 33.996094 C 39.417969 33.996094 36.882812 36.535156 36.882812 39.65625 C 36.882812 42.78125 39.417969 45.320312 42.535156 45.320312 C 45.648438 45.320312 48.183594 42.78125 48.183594 39.65625 Z M 43.070312 28.339844 C 42.605469 28.101562 42.167969 27.875 41.78125 27.703125 C 40.175781 26.988281 35.433594 29.660156 33.464844 32.390625 C 31.054688 35.734375 27.472656 37.609375 22.820312 37.96875 C 21.464844 38.070312 20.378906 38.441406 19.5625 38.851562 L 49.40625 68.761719 L 49.40625 30.484375 C 46.785156 30.257812 44.6875 29.175781 43.070312 28.339844 Z M 15.136719 34.414062 L 16.859375 36.140625 C 18.109375 35.339844 20.011719 34.464844 22.535156 34.273438 C 26.105469 33.996094 28.699219 32.671875 30.464844 30.21875 C 32.613281 27.238281 39.085938 22.449219 43.285156 24.316406 C 43.765625 24.53125 44.25 24.78125 44.761719 25.046875 C 46.132812 25.753906 47.644531 26.527344 49.40625 26.753906 L 49.40625 20.191406 C 36.570312 20.628906 24.523438 25.628906 15.136719 34.414062 Z M 53.105469 16.453125 L 53.105469 77.707031 L 9.882812 34.394531 L 11.191406 33.082031 C 21.894531 22.359375 36.125 16.453125 51.257812 16.453125 Z M 99.101562 83.972656 C 101.484375 83.972656 101.488281 80.261719 99.101562 80.261719 C 96.714844 80.261719 96.710938 83.972656 99.101562 83.972656 Z M 31.199219 44.730469 C 33.582031 44.730469 33.585938 41.019531 31.199219 41.019531 C 28.816406 41.019531 28.8125 44.730469 31.199219 44.730469 Z M 99.101562 83.972656 C 101.484375 83.972656 101.488281 80.261719 99.101562 80.261719 C 96.714844 80.261719 96.710938 83.972656 99.101562 83.972656 Z M 98.792969 100.285156 C 101.171875 100.285156 101.179688 96.574219 98.792969 96.574219 C 96.40625 96.574219 96.402344 100.285156 98.792969 100.285156 Z M 70.238281 116.179688 C 72.621094 116.179688 72.625 112.46875 70.238281 112.46875 C 67.859375 112.46875 67.855469 116.179688 70.238281 116.179688 Z M 48.191406 113.347656 C 50.574219 113.347656 50.578125 109.636719 48.191406 109.636719 C 45.808594 109.636719 45.804688 113.347656 48.191406 113.347656 Z M 42.527344 126.214844 C 44.910156 126.214844 44.914062 122.503906 42.527344 122.503906 C 40.144531 122.503906 40.140625 126.214844 42.527344 126.214844 Z M 40.488281 101.539062 C 38.101562 101.539062 38.105469 97.828125 40.488281 97.828125 C 42.875 97.828125 42.871094 101.539062 40.488281 101.539062 " fill-opacity="1" fill-rule="nonzero"/></g><g fill="#f23e79" fill-opacity="1"><g transform="translate(217.486828, 73.814367)"><g><path d="M 6.273438 -7.632812 C 8.375 -7.132812 9.804688 -6.585938 10.566406 -5.964844 C 11.09375 -5.535156 11.355469 -4.984375 11.355469 -4.316406 C 11.355469 -3.648438 11.210938 -3.101562 10.925781 -2.71875 C 10.210938 -1.71875 8.921875 -1.214844 7.109375 -1.214844 C 4.582031 -1.214844 3.148438 -2.074219 2.839844 -3.792969 L 0.882812 -3.792969 C 1.457031 -1.050781 3.53125 0.308594 7.109375 0.308594 C 8.707031 0.308594 10.042969 -0.0234375 11.117188 -0.738281 C 12.40625 -1.574219 13.074219 -2.816406 13.074219 -4.4375 C 13.074219 -5.773438 12.546875 -6.796875 11.5 -7.515625 C 10.757812 -8.039062 9.566406 -8.515625 7.921875 -8.945312 C 6.25 -9.375 5.175781 -9.734375 4.675781 -9.996094 C 3.578125 -10.542969 3.03125 -11.308594 3.054688 -12.308594 C 3.054688 -12.835938 3.148438 -13.289062 3.386719 -13.621094 C 4.007812 -14.550781 5.105469 -15.027344 6.679688 -15.027344 C 8.898438 -15.027344 10.164062 -14.3125 10.496094 -12.929688 L 12.308594 -12.929688 C 11.714844 -15.265625 9.828125 -16.460938 6.679688 -16.460938 C 5.25 -16.460938 3.984375 -16.078125 2.933594 -15.316406 C 1.859375 -14.550781 1.3125 -13.429688 1.3125 -11.902344 C 1.3125 -9.828125 2.980469 -8.398438 6.273438 -7.632812 Z M 6.273438 -7.632812 "/></g></g></g><g fill="#f23e79" fill-opacity="1"><g transform="translate(234.30493, 73.814367)"><g><path d="M 3.460938 0 L 3.460938 -16.222656 L 1.789062 -16.222656 L 1.789062 0 Z M 3.460938 0 "/></g></g></g><g fill="#f23e79" fill-opacity="1"><g transform="translate(242.678189, 73.814367)"><g><path d="M 6.273438 -7.632812 C 8.375 -7.132812 9.804688 -6.585938 10.566406 -5.964844 C 11.09375 -5.535156 11.355469 -4.984375 11.355469 -4.316406 C 11.355469 -3.648438 11.210938 -3.101562 10.925781 -2.71875 C 10.210938 -1.71875 8.921875 -1.214844 7.109375 -1.214844 C 4.582031 -1.214844 3.148438 -2.074219 2.839844 -3.792969 L 0.882812 -3.792969 C 1.457031 -1.050781 3.53125 0.308594 7.109375 0.308594 C 8.707031 0.308594 10.042969 -0.0234375 11.117188 -0.738281 C 12.40625 -1.574219 13.074219 -2.816406 13.074219 -4.4375 C 13.074219 -5.773438 12.546875 -6.796875 11.5 -7.515625 C 10.757812 -8.039062 9.566406 -8.515625 7.921875 -8.945312 C 6.25 -9.375 5.175781 -9.734375 4.675781 -9.996094 C 3.578125 -10.542969 3.03125 -11.308594 3.054688 -12.308594 C 3.054688 -12.835938 3.148438 -13.289062 3.386719 -13.621094 C 4.007812 -14.550781 5.105469 -15.027344 6.679688 -15.027344 C 8.898438 -15.027344 10.164062 -14.3125 10.496094 -12.929688 L 12.308594 -12.929688 C 11.714844 -15.265625 9.828125 -16.460938 6.679688 -16.460938 C 5.25 -16.460938 3.984375 -16.078125 2.933594 -15.316406 C 1.859375 -14.550781 1.3125 -13.429688 1.3125 -11.902344 C 1.3125 -9.828125 2.980469 -8.398438 6.273438 -7.632812 Z M 6.273438 -7.632812 "/></g></g></g><g fill="#f23e79" fill-opacity="1"><g transform="translate(259.496291, 73.814367)"><g><path d="M 0.476562 -14.71875 L 4.414062 -14.71875 L 4.414062 -0.046875 L 6.082031 -0.046875 L 6.082031 -14.71875 L 10.019531 -14.71875 L 10.019531 -16.269531 L 0.476562 -16.269531 Z M 0.476562 -14.71875 "/></g></g></g><g fill="#f23e79" fill-opacity="1"><g transform="translate(273.117761, 73.814367)"><g><path d="M 11.425781 0 L 11.425781 -1.550781 L 3.460938 -1.550781 L 3.460938 -7.324219 L 11.1875 -7.324219 L 11.1875 -8.898438 L 3.460938 -8.898438 L 3.460938 -14.671875 L 11.425781 -14.671875 L 11.425781 -16.222656 L 1.789062 -16.222656 L 1.789062 0 Z M 11.425781 0 "/></g></g></g><g fill="#f23e79" fill-opacity="1"><g transform="translate(289.458757, 73.814367)"><g><path d="M 16.746094 0 L 18.441406 0 L 14.671875 -17.296875 L 9.351562 -3.410156 L 4.03125 -17.296875 L 0.238281 0 L 1.957031 0 L 4.460938 -11.546875 L 9.351562 0.953125 L 14.21875 -11.546875 Z M 16.746094 0 "/></g></g></g><g fill="#f23e79" fill-opacity="1"><g transform="translate(311.262647, 73.814367)"><g><path d="M 4.414062 -5.964844 L 7.371094 -13.429688 L 10.304688 -5.964844 Z M 14.480469 0 L 7.371094 -17.34375 L 0.238281 0 L 2.050781 0 L 3.792969 -4.414062 L 10.925781 -4.414062 L 12.667969 0 Z M 14.480469 0 "/></g></g></g><g fill="#f23e79" fill-opacity="1"><g transform="translate(329.106523, 73.814367)"><g/></g></g><g fill="#f23e79" fill-opacity="1"><g transform="translate(338.672559, 73.814367)"><g><path d="M 14.386719 -8.109375 C 14.386719 -9.28125 14.144531 -10.351562 13.71875 -11.355469 C 13.289062 -12.355469 12.691406 -13.214844 11.953125 -13.929688 C 11.1875 -14.648438 10.304688 -15.195312 9.304688 -15.601562 C 8.277344 -16.007812 7.179688 -16.222656 6.035156 -16.222656 L 1.789062 -16.222656 L 1.789062 0 L 6.035156 0 C 7.179688 0 8.277344 -0.191406 9.304688 -0.597656 C 10.304688 -1 11.1875 -1.574219 11.953125 -2.289062 C 12.691406 -3.003906 13.289062 -3.839844 13.71875 -4.84375 C 14.144531 -5.84375 14.386719 -6.917969 14.386719 -8.109375 Z M 12.761719 -8.109375 C 12.761719 -6.25 12.09375 -4.699219 10.804688 -3.484375 C 9.519531 -2.265625 7.945312 -1.667969 6.082031 -1.667969 L 3.460938 -1.667969 L 3.460938 -14.550781 L 6.082031 -14.550781 C 7.945312 -14.550781 9.519531 -13.929688 10.804688 -12.738281 C 12.09375 -11.5 12.761719 -9.949219 12.761719 -8.109375 Z M 12.761719 -8.109375 "/></g></g></g><g fill="#f23e79" fill-opacity="1"><g transform="translate(357.255962, 73.814367)"><g><path d="M 11.425781 0 L 11.425781 -1.550781 L 3.460938 -1.550781 L 3.460938 -7.324219 L 11.1875 -7.324219 L 11.1875 -8.898438 L 3.460938 -8.898438 L 3.460938 -14.671875 L 11.425781 -14.671875 L 11.425781 -16.222656 L 1.789062 -16.222656 L 1.789062 0 Z M 11.425781 0 "/></g></g></g><g fill="#f23e79" fill-opacity="1"><g transform="translate(237.346932, 106.615571)"><g><path d="M 3.460938 -8.039062 L 3.460938 -14.625 L 7.226562 -14.625 C 8.207031 -14.625 8.992188 -14.3125 9.589844 -13.71875 C 10.164062 -13.097656 10.472656 -12.332031 10.472656 -11.378906 C 10.472656 -10.402344 10.164062 -9.613281 9.542969 -8.96875 C 8.921875 -8.347656 8.160156 -8.039062 7.226562 -8.039062 Z M 12.140625 -11.332031 C 12.140625 -12.761719 11.617188 -13.929688 10.617188 -14.863281 C 9.613281 -15.769531 8.421875 -16.222656 6.988281 -16.222656 L 1.789062 -16.222656 L 1.789062 0 L 3.460938 0 L 3.460938 -6.417969 L 6.988281 -6.417969 C 8.421875 -6.417969 9.636719 -6.871094 10.617188 -7.777344 C 11.617188 -8.730469 12.140625 -9.898438 12.140625 -11.332031 Z M 12.140625 -11.332031 "/></g></g></g><g fill="#f23e79" fill-opacity="1"><g transform="translate(253.091539, 106.615571)"><g><path d="M 11.425781 0 L 11.425781 -1.550781 L 3.460938 -1.550781 L 3.460938 -7.324219 L 11.1875 -7.324219 L 11.1875 -8.898438 L 3.460938 -8.898438 L 3.460938 -14.671875 L 11.425781 -14.671875 L 11.425781 -16.222656 L 1.789062 -16.222656 L 1.789062 0 Z M 11.425781 0 "/></g></g></g><g fill="#f23e79" fill-opacity="1"><g transform="translate(269.432533, 106.615571)"><g><path d="M 14.386719 -8.109375 C 14.386719 -9.28125 14.144531 -10.351562 13.71875 -11.355469 C 13.289062 -12.355469 12.691406 -13.214844 11.953125 -13.929688 C 11.1875 -14.648438 10.304688 -15.195312 9.304688 -15.601562 C 8.277344 -16.007812 7.179688 -16.222656 6.035156 -16.222656 L 1.789062 -16.222656 L 1.789062 0 L 6.035156 0 C 7.179688 0 8.277344 -0.191406 9.304688 -0.597656 C 10.304688 -1 11.1875 -1.574219 11.953125 -2.289062 C 12.691406 -3.003906 13.289062 -3.839844 13.71875 -4.84375 C 14.144531 -5.84375 14.386719 -6.917969 14.386719 -8.109375 Z M 12.761719 -8.109375 C 12.761719 -6.25 12.09375 -4.699219 10.804688 -3.484375 C 9.519531 -2.265625 7.945312 -1.667969 6.082031 -1.667969 L 3.460938 -1.667969 L 3.460938 -14.550781 L 6.082031 -14.550781 C 7.945312 -14.550781 9.519531 -13.929688 10.804688 -12.738281 C 12.09375 -11.5 12.761719 -9.949219 12.761719 -8.109375 Z M 12.761719 -8.109375 "/></g></g></g><g fill="#f23e79" fill-opacity="1"><g transform="translate(288.015933, 106.615571)"><g><path d="M 3.460938 0 L 3.460938 -16.222656 L 1.789062 -16.222656 L 1.789062 0 Z M 3.460938 0 "/></g></g></g><g fill="#f23e79" fill-opacity="1"><g transform="translate(296.389193, 106.615571)"><g><path d="M 14.386719 -8.109375 C 14.386719 -9.28125 14.144531 -10.351562 13.71875 -11.355469 C 13.289062 -12.355469 12.691406 -13.214844 11.953125 -13.929688 C 11.1875 -14.648438 10.304688 -15.195312 9.304688 -15.601562 C 8.277344 -16.007812 7.179688 -16.222656 6.035156 -16.222656 L 1.789062 -16.222656 L 1.789062 0 L 6.035156 0 C 7.179688 0 8.277344 -0.191406 9.304688 -0.597656 C 10.304688 -1 11.1875 -1.574219 11.953125 -2.289062 C 12.691406 -3.003906 13.289062 -3.839844 13.71875 -4.84375 C 14.144531 -5.84375 14.386719 -6.917969 14.386719 -8.109375 Z M 12.761719 -8.109375 C 12.761719 -6.25 12.09375 -4.699219 10.804688 -3.484375 C 9.519531 -2.265625 7.945312 -1.667969 6.082031 -1.667969 L 3.460938 -1.667969 L 3.460938 -14.550781 L 6.082031 -14.550781 C 7.945312 -14.550781 9.519531 -13.929688 10.804688 -12.738281 C 12.09375 -11.5 12.761719 -9.949219 12.761719 -8.109375 Z M 12.761719 -8.109375 "/></g></g></g><g fill="#f23e79" fill-opacity="1"><g transform="translate(314.972596, 106.615571)"><g><path d="M 16.078125 -8.160156 C 16.078125 -6.296875 15.410156 -4.722656 14.121094 -3.433594 C 12.808594 -2.125 11.234375 -1.480469 9.398438 -1.480469 C 7.5625 -1.480469 5.988281 -2.125 4.699219 -3.433594 C 3.386719 -4.722656 2.742188 -6.296875 2.742188 -8.160156 C 2.742188 -9.972656 3.386719 -11.546875 4.699219 -12.859375 C 5.988281 -14.144531 7.5625 -14.8125 9.398438 -14.8125 C 11.234375 -14.8125 12.808594 -14.144531 14.121094 -12.859375 C 15.410156 -11.546875 16.078125 -9.972656 16.078125 -8.160156 Z M 17.75 -8.160156 C 17.75 -9.304688 17.511719 -10.378906 17.082031 -11.402344 C 16.652344 -12.40625 16.054688 -13.289062 15.292969 -14.050781 C 14.527344 -14.789062 13.644531 -15.386719 12.644531 -15.816406 C 11.617188 -16.246094 10.542969 -16.484375 9.398438 -16.484375 C 8.253906 -16.484375 7.15625 -16.246094 6.15625 -15.816406 C 5.152344 -15.386719 4.269531 -14.789062 3.507812 -14.050781 C 2.742188 -13.289062 2.148438 -12.40625 1.71875 -11.402344 C 1.289062 -10.378906 1.074219 -9.304688 1.074219 -8.160156 C 1.074219 -7.011719 1.289062 -5.917969 1.71875 -4.914062 C 2.148438 -3.886719 2.742188 -3.003906 3.507812 -2.242188 C 4.269531 -1.480469 5.152344 -0.882812 6.15625 -0.453125 C 7.15625 -0.0234375 8.253906 0.191406 9.398438 0.191406 C 10.542969 0.191406 11.617188 -0.0234375 12.644531 -0.453125 C 13.644531 -0.882812 14.527344 -1.480469 15.292969 -2.242188 C 16.054688 -3.003906 16.652344 -3.886719 17.082031 -4.914062 C 17.511719 -5.917969 17.75 -7.011719 17.75 -8.160156 Z M 17.75 -8.160156 "/></g></g></g><g fill="#f23e79" fill-opacity="1"><g transform="translate(336.919614, 106.615571)"><g><path d="M 6.273438 -7.632812 C 8.375 -7.132812 9.804688 -6.585938 10.566406 -5.964844 C 11.09375 -5.535156 11.355469 -4.984375 11.355469 -4.316406 C 11.355469 -3.648438 11.210938 -3.101562 10.925781 -2.71875 C 10.210938 -1.71875 8.921875 -1.214844 7.109375 -1.214844 C 4.582031 -1.214844 3.148438 -2.074219 2.839844 -3.792969 L 0.882812 -3.792969 C 1.457031 -1.050781 3.53125 0.308594 7.109375 0.308594 C 8.707031 0.308594 10.042969 -0.0234375 11.117188 -0.738281 C 12.40625 -1.574219 13.074219 -2.816406 13.074219 -4.4375 C 13.074219 -5.773438 12.546875 -6.796875 11.5 -7.515625 C 10.757812 -8.039062 9.566406 -8.515625 7.921875 -8.945312 C 6.25 -9.375 5.175781 -9.734375 4.675781 -9.996094 C 3.578125 -10.542969 3.03125 -11.308594 3.054688 -12.308594 C 3.054688 -12.835938 3.148438 -13.289062 3.386719 -13.621094 C 4.007812 -14.550781 5.105469 -15.027344 6.679688 -15.027344 C 8.898438 -15.027344 10.164062 -14.3125 10.496094 -12.929688 L 12.308594 -12.929688 C 11.714844 -15.265625 9.828125 -16.460938 6.679688 -16.460938 C 5.25 -16.460938 3.984375 -16.078125 2.933594 -15.316406 C 1.859375 -14.550781 1.3125 -13.429688 1.3125 -11.902344 C 1.3125 -9.828125 2.980469 -8.398438 6.273438 -7.632812 Z M 6.273438 -7.632812 "/></g></g></g></svg>